<?xml version="1.0" encoding="UTF-8"?>
<svg version="1.1" xmlns="http://www.w3.org/2000/svg" width="512" height="512">
<path d="M0 0 C4.15717541 2.90205376 7.1006705 6.42426627 10.125 10.4375 C13.88390661 15.34114988 17.75783989 20.08867673 21.8125 24.75 C27.9979951 31.9226115 34.04762334 39.33850438 34.3125 49.125 C34.36857422 50.45917969 34.36857422 50.45917969 34.42578125 51.8203125 C33.25922297 60.53204129 27.62197916 68.80995945 23.625 76.5 C23.07328125 77.57636719 22.5215625 78.65273437 21.953125 79.76171875 C10.93413472 100.99784791 10.93413472 100.99784791 0.5625 104.8125 C-6.8018384 106.9640179 -13.10461881 106.23411684 -20 103 C-25.50699852 99.52702058 -28.85817528 95.13126747 -31 89 C-31.52780393 86.63382813 -31.79793554 84.42477357 -32 82 C-41.50721129 82 -51.00619959 90.05916954 -58 96 C-59.07121094 96.83724609 -59.07121094 96.83724609 -60.1640625 97.69140625 C-77.28507818 111.69676007 -87.18877511 133.35887254 -90 155 C-91.07784233 174.00172629 -88.492546 190.60254267 -80.125 207.875 C-78.40908934 212.6414185 -79.43760313 216.31280939 -81 221 C-78.63560526 225.64790229 -75.80105544 229.47083694 -72 233 C-69.03857348 233.55285676 -66.72299669 233.26867274 -63.7421875 232.921875 C-59.22128553 233.05067563 -56.96089581 235.81280686 -53.69921875 238.7109375 C-37.55612336 252.40102997 -13.80991037 258.54601928 7 257 C32.49233665 254.38777655 54.86134581 243.4892181 71.80859375 223.84375 C87.24613116 203.81072462 94.72624219 178.9795025 91.49609375 153.7421875 C89.59297613 140.79866858 85.21583267 129.45980385 78.59106445 118.19873047 C76.34794393 114.25320802 75.53907607 111.51705456 76 107 C76.27714844 106.17113281 76.55429688 105.34226562 76.83984375 104.48828125 C77.29875927 101.70909576 77.29875927 101.70909576 74.69140625 99.10546875 C73.66327784 98.11713886 72.61954107 97.14484433 71.5625 96.1875 C71.03333984 95.68541016 70.50417969 95.18332031 69.95898438 94.66601562 C68.65239036 93.43004832 67.32783937 92.21311405 66 91 C65.10474609 91.49113281 65.10474609 91.49113281 64.19140625 91.9921875 C61.6830794 93.14574958 59.84978036 93.28889452 57.1328125 92.80078125 C50.16421203 90.18436532 43.2751395 84.69267637 40 78 C36.99448428 69.88510757 37.18714482 63.23100657 40.609375 55.3984375 C44.02098617 49.51436655 49.47343321 45.45480153 55.94140625 43.4375 C63.6984998 41.78893363 70.08004978 43.23100808 77 47 C84.9396259 52.2580304 92.09711331 58.46158573 99 65 C99.85722656 65.804375 100.71445313 66.60875 101.59765625 67.4375 C106.65118826 72.31572095 110.83558959 77.24310874 114.625 83.1640625 C115.07875 83.76992187 115.5325 84.37578125 116 85 C116.66 85 117.32 85 118 85 C119.50544889 83.13422054 120.91311207 81.25559042 122.3125 79.3125 C143.76377138 50.60128551 177.26273556 31.4266673 212.68945312 26.28613281 C250.95111006 21.54789719 288.26858789 30.68902353 319 54.125 C321.02104805 55.72637854 323.01046408 57.35897589 325 59 C325.77988281 59.60585937 326.55976563 60.21171875 327.36328125 60.8359375 C329.28761664 62.47875689 330.72391778 63.81377089 332 66 C332.0625 68.1953125 332.0625 68.1953125 331.8125 70.625 C331.38056985 76.00751418 333.44562039 78.97633748 336.5625 83.125 C336.98055908 83.70588379 337.39861816 84.28676758 337.8293457 84.88525391 C339.2633727 86.77526171 339.2633727 86.77526171 342 89 C344.3320467 89.07747663 346.66799411 89.07869536 349 89 C353.65628199 91.67617949 355.7035725 95.53108434 357.9375 100.25 C358.27813477 100.95455322 358.61876953 101.65910645 358.96972656 102.38500977 C368.5162105 122.51359667 373.23184317 142.54548937 373.25 164.875 C373.25101212 165.98764725 373.25101212 165.98764725 373.25204468 167.12277222 C373.23624559 178.03758076 372.84412579 188.40020588 370 199 C369.82839355 199.65097656 369.65678711 200.30195313 369.47998047 200.97265625 C364.03244989 221.18547749 354.76885468 240.15383262 341 256 C340.30261719 256.81855469 339.60523438 257.63710938 338.88671875 258.48046875 C329.76626128 268.92930546 319.61308191 277.49226908 308 285 C307.07960938 285.60585938 306.15921875 286.21171875 305.2109375 286.8359375 C298.9591344 290.72790506 292.43568281 293.62473332 285.625 296.375 C284.7683374 296.72119385 283.9116748 297.0673877 283.02905273 297.42407227 C278.69347566 299.12063939 274.66092436 300.46862426 270 301 C270.33 301.99 270.66 302.98 271 304 C271.70278209 311.67299795 271.46356457 318.50980306 267 325 C262.40656379 330.00579061 257.89097204 333.56654975 250.984375 334.3359375 C242.30293785 334.44078577 236.11456314 333.83172901 229.61328125 327.77734375 C223.87305733 321.65864352 218.73290282 315.00621226 213.6171875 308.36328125 C211.31977617 305.38506194 208.91718157 302.50702418 206.5 299.625 C201.46655345 293.28161961 199.13040801 287.33165332 199.41015625 279.140625 C200.55454612 273.04731733 203.70351686 267.82905013 206.66845703 262.45605469 C208.17098504 259.68461505 209.60172305 256.88206551 211.02734375 254.0703125 C212.08043499 252.0050583 213.13381917 249.93995345 214.1875 247.875 C214.68604492 246.89112305 215.18458984 245.90724609 215.69824219 244.89355469 C220.40162687 235.80867809 224.84721831 229.23293184 235 226 C241.69863077 225.07632789 248.28170017 225.06309904 254.21875 228.59765625 C262.25832619 234.92705943 264.82167942 241.17400464 266 251 C290.57311083 239.55541666 309.34944937 222.84066176 319 197 C326.99025031 172.74909419 325.98260072 147.7560173 314.91015625 124.68359375 C304.3117694 103.73127285 285.90134829 86.85775049 263.4765625 79.42578125 C238.70088479 71.77326603 213.09596606 73.10816017 189.90673828 84.95654297 C167.58528435 97.17189433 152.47075684 117.30309393 144.9375 141.3984375 C138.58901349 165.6325639 142.20187749 190.5077597 154.3125 212.3125 C161.78781311 224.41070411 171.24635502 233.99028584 182.8125 242.1875 C190.05041214 247.37347936 193.99945785 252.17590321 196 261 C196.76975522 268.18438204 194.75703626 274.2313368 190.9375 280.25 C185.65595404 285.86066307 179.09446448 288.30259349 171.5 288.625 C155.25299657 287.86579423 139.72051662 272.40692149 129 261 C126.35857864 257.8775171 123.85187108 254.659974 121.42529297 251.36816406 C120.3233128 249.88177221 119.16648445 248.43632693 118 247 C117.34 247 116.68 247 116 247 C114.56450274 248.59334239 113.20172673 250.25251082 111.875 251.9375 C105.44744636 259.94880285 99.04950548 267.57337869 91 274 C90.50177734 274.39944824 90.00355469 274.79889648 89.49023438 275.21044922 C59.18078844 299.2247194 22.02135287 309.5674052 -16.4140625 305.50390625 C-43.85933266 302.00708971 -69.04859261 291.1626535 -90 273 C-91.22589844 271.95585938 -91.22589844 271.95585938 -92.4765625 270.890625 C-118.32257073 248.32537942 -134.72779232 217.02364765 -139 183 C-141.01207237 142.27565525 -132.90111793 104.60381119 -105.1875 73.4375 C-102.19452749 70.21913726 -99.14919712 67.06632351 -96 64 C-95.55011719 63.505 -95.10023437 63.01 -94.63671875 62.5 C-79.79660298 46.59198508 -57.73051349 35.67778395 -37 30 C-37.05800781 29.03320312 -37.11601563 28.06640625 -37.17578125 27.0703125 C-37.46431471 18.7440611 -37.31190694 11.84788004 -32 5 C-22.99254194 -3.85949161 -11.3336158 -5.54271721 0 0 Z " fill="#96E2F8" transform="translate(139,50)"/>
<path d="M0 0 C4.15717541 2.90205376 7.1006705 6.42426627 10.125 10.4375 C13.88390661 15.34114988 17.75783989 20.08867673 21.8125 24.75 C27.9979951 31.9226115 34.04762334 39.33850438 34.3125 49.125 C34.36857422 50.45917969 34.36857422 50.45917969 34.42578125 51.8203125 C33.25922297 60.53204129 27.62197916 68.80995945 23.625 76.5 C23.07328125 77.57636719 22.5215625 78.65273437 21.953125 79.76171875 C10.93413472 100.99784791 10.93413472 100.99784791 0.5625 104.8125 C-6.8018384 106.9640179 -13.10461881 106.23411684 -20 103 C-25.50699852 99.52702058 -28.85817528 95.13126747 -31 89 C-31.52780393 86.63382813 -31.79793554 84.42477357 -32 82 C-41.50721129 82 -51.00619959 90.05916954 -58 96 C-59.07121094 96.83724609 -59.07121094 96.83724609 -60.1640625 97.69140625 C-77.28507818 111.69676007 -87.18877511 133.35887254 -90 155 C-91.07784233 174.00172629 -88.492546 190.60254267 -80.125 207.875 C-78.72001514 211.77773572 -78.78274213 214.04391193 -80 218 C-82.52842865 220.177258 -84.2932843 220.87934122 -87.5625 221.4375 C-90.87055121 220.84374722 -91.81044885 219.52575862 -94 217 C-108.01007439 191.78186609 -110.4310167 162.72655404 -102.96875 135.1953125 C-94.365978 107.23630351 -74.78923667 83.89463586 -49.12988281 69.98632812 C-38.67169087 64.56356194 -26.98038736 59.2791584 -15 60 C-12.5625 61.5625 -12.5625 61.5625 -11 64 C-10.35306275 68.2859593 -10.75995313 70.94642434 -13 74.5625 C-15.13050455 78.2243047 -15.5515549 79.86333823 -15 84 C-13.79255056 87.20476624 -13.79255056 87.20476624 -11 89 C-6.12012836 89.5590334 -6.12012836 89.5590334 -1.98266602 87.34936523 C0.22622505 84.73193404 1.75028848 82.12730926 3.34765625 79.09765625 C3.95287109 77.96005859 4.55808594 76.82246094 5.18164062 75.65039062 C5.80888859 74.45458169 6.43583919 73.25861674 7.0625 72.0625 C8.3010633 69.71881593 9.54328205 67.37708977 10.78515625 65.03515625 C11.60318726 63.47873413 11.60318726 63.47873413 12.43774414 61.89086914 C13.46743831 59.98547632 14.54060909 58.10285791 15.65844727 56.24780273 C17.47175103 53.20957021 17.91490229 51.149566 17.79296875 47.63671875 C16.12270531 42.08288712 11.44051882 37.96268395 7.58300781 33.77636719 C4.42638467 30.23417256 1.59238253 26.43155059 -1.29418945 22.66918945 C-5.2830513 16.92859573 -5.2830513 16.92859573 -11 13.43359375 C-14.83364054 13.44108133 -16.48287734 13.58377933 -19.5625 16.0625 C-21.47987578 19.98061572 -21.24141926 21.83759425 -20 26 C-18.7315625 27.5159375 -18.7315625 27.5159375 -17.4375 29.0625 C-15 32 -15 32 -14.5 35.125 C-15.06284693 38.36136985 -15.80282699 39.60062939 -18 42 C-20.07446289 42.87792969 -20.07446289 42.87792969 -22.47265625 43.421875 C-23.36339844 43.6381958 -24.25414063 43.8545166 -25.171875 44.07739258 C-26.60273438 44.41033325 -26.60273438 44.41033325 -28.0625 44.75 C-60.64666058 53.02148703 -88.63654167 73.03547705 -106 102 C-122.36594486 130.13416877 -127.74300285 163.55768482 -120 195.33984375 C-111.2262732 228.29089361 -91.45136855 255.54921367 -62 273 C-43.0533488 283.79545517 -22.9870142 289.58330365 -1.16601562 289.39111328 C0.99933804 289.37500492 3.16282651 289.39108519 5.328125 289.41015625 C18.15017205 289.43104054 30.33978452 287.49442683 42.375 282.875 C43.16535645 282.5756958 43.95571289 282.2763916 44.77001953 281.96801758 C78.58526106 268.76220491 101.52925102 244.30659129 116.53515625 211.66015625 C122.82384778 196.40959851 124.35479152 181.31169866 125.28857422 164.98461914 C126.83526568 138.66591764 134.19894012 114.87728292 152 95 C152.49886719 94.3709375 152.99773437 93.741875 153.51171875 93.09375 C168.9574193 73.62066049 195.60889498 61.32481468 219.875 58.25 C221.58177485 58.13924423 223.29069168 58.06010226 225 58 C226.27746094 57.93683594 227.55492187 57.87367187 228.87109375 57.80859375 C255.90903167 56.870897 281.23288219 65.68221512 302 83 C303.22203125 84.01900391 303.22203125 84.01900391 304.46875 85.05859375 C321.63731396 99.92211903 334.26484362 120.69141112 339 143 C339.20367187 143.89332031 339.40734375 144.78664062 339.6171875 145.70703125 C345.28617683 174.09080658 337.54920353 203.26405163 321.9453125 227.14453125 C306.4066048 248.85887919 283.95552594 264.45075683 258 271 C253.62862576 271.68989565 250.34306391 271.81894141 246.4375 269.4375 C244.40022485 265.98298996 244.47044949 263.97162886 245 260 C245.64299416 258.64464302 246.33331827 257.31100268 247.0625 256 C248.74759936 252.91165063 249 251.90902672 249 248.1875 C248.23749767 245.01126833 248.23749767 245.01126833 246.3125 243.0625 C243.26397123 241.66182462 241.32073048 241.5157268 238 242 C234.26891949 245.0592218 232.1395257 248.92020578 229.890625 253.109375 C229.33311554 254.13783539 229.33311554 254.13783539 228.76434326 255.18707275 C227.98401464 256.6340117 227.20765764 258.08309878 226.43505859 259.53417969 C225.2562968 261.73822626 224.05274832 263.92745302 222.84765625 266.1171875 C222.0895804 267.53041139 221.33301942 268.94444914 220.578125 270.359375 C220.21881897 271.00549744 219.85951294 271.65161987 219.48931885 272.31732178 C216.99268832 277.0991133 216.49462435 280.60591722 217 286 C218.53173293 288.56868945 219.87898219 290.48067631 221.8125 292.6875 C222.30443848 293.27909912 222.79637695 293.87069824 223.30322266 294.48022461 C224.33393449 295.71449139 225.37347903 296.94143168 226.42138672 298.16113281 C227.9690375 299.96393294 229.48953679 301.78639007 231.00390625 303.6171875 C237.77659086 313.03147034 237.77659086 313.03147034 247 318.625 C251.11289267 317.76814736 252.59686932 316.42264067 255 313 C255.20211092 307.54300503 253.25466037 304.79346955 250.09375 300.6953125 C248.3568499 298.00311734 248.38283911 296.08580447 249 293 C251.75255867 289.67637758 254.00662109 288.37203159 258.1484375 287.2890625 C259.14681641 287.01731201 260.14519531 286.74556152 261.17382812 286.46557617 C262.7584082 286.04949097 262.7584082 286.04949097 264.375 285.625 C296.91067566 276.55106491 323.88099766 257.59748173 341 228 C346.17999927 218.44910152 350.42783268 208.57574154 353 198 C353.18046875 197.26894043 353.3609375 196.53788086 353.546875 195.78466797 C361.53679439 162.42810415 355.95974282 131.86262141 340 102 C338.45413124 98.90826248 338.70640479 96.40570448 339 93 C340.625 90.5625 340.625 90.5625 343 89 C346.64422746 88.37970596 348.32768455 88.56610952 351.4453125 90.578125 C354.48067068 93.45568169 356.17336057 96.52345777 357.9375 100.25 C358.27813477 100.95455322 358.61876953 101.65910645 358.96972656 102.38500977 C368.5162105 122.51359667 373.23184317 142.54548937 373.25 164.875 C373.25101212 165.98764725 373.25101212 165.98764725 373.25204468 167.12277222 C373.23624559 178.03758076 372.84412579 188.40020588 370 199 C369.82839355 199.65097656 369.65678711 200.30195313 369.47998047 200.97265625 C364.03244989 221.18547749 354.76885468 240.15383262 341 256 C340.30261719 256.81855469 339.60523438 257.63710938 338.88671875 258.48046875 C329.76626128 268.92930546 319.61308191 277.49226908 308 285 C307.07960938 285.60585938 306.15921875 286.21171875 305.2109375 286.8359375 C298.9591344 290.72790506 292.43568281 293.62473332 285.625 296.375 C284.7683374 296.72119385 283.9116748 297.0673877 283.02905273 297.42407227 C278.69347566 299.12063939 274.66092436 300.46862426 270 301 C270.33 301.99 270.66 302.98 271 304 C271.70278209 311.67299795 271.46356457 318.50980306 267 325 C262.40656379 330.00579061 257.89097204 333.56654975 250.984375 334.3359375 C242.30293785 334.44078577 236.11456314 333.83172901 229.61328125 327.77734375 C223.87305733 321.65864352 218.73290282 315.00621226 213.6171875 308.36328125 C211.31977617 305.38506194 208.91718157 302.50702418 206.5 299.625 C201.46655345 293.28161961 199.13040801 287.33165332 199.41015625 279.140625 C200.55454612 273.04731733 203.70351686 267.82905013 206.66845703 262.45605469 C208.17098504 259.68461505 209.60172305 256.88206551 211.02734375 254.0703125 C212.08043499 252.0050583 213.13381917 249.93995345 214.1875 247.875 C214.68604492 246.89112305 215.18458984 245.90724609 215.69824219 244.89355469 C220.40162687 235.80867809 224.84721831 229.23293184 235 226 C241.69863077 225.07632789 248.28170017 225.06309904 254.21875 228.59765625 C262.25832619 234.92705943 264.82167942 241.17400464 266 251 C290.57311083 239.55541666 309.34944937 222.84066176 319 197 C326.99025031 172.74909419 325.98260072 147.7560173 314.91015625 124.68359375 C304.3117694 103.73127285 285.90134829 86.85775049 263.4765625 79.42578125 C238.70088479 71.77326603 213.09596606 73.10816017 189.90673828 84.95654297 C167.58528435 97.17189433 152.47075684 117.30309393 144.9375 141.3984375 C138.58901349 165.6325639 142.20187749 190.5077597 154.3125 212.3125 C161.78781311 224.41070411 171.24635502 233.99028584 182.8125 242.1875 C190.05041214 247.37347936 193.99945785 252.17590321 196 261 C196.76975522 268.18438204 194.75703626 274.2313368 190.9375 280.25 C185.65595404 285.86066307 179.09446448 288.30259349 171.5 288.625 C155.25299657 287.86579423 139.72051662 272.40692149 129 261 C126.35857864 257.8775171 123.85187108 254.659974 121.42529297 251.36816406 C120.3233128 249.88177221 119.16648445 248.43632693 118 247 C117.34 247 116.68 247 116 247 C114.56450274 248.59334239 113.20172673 250.25251082 111.875 251.9375 C105.44744636 259.94880285 99.04950548 267.57337869 91 274 C90.50177734 274.39944824 90.00355469 274.79889648 89.49023438 275.21044922 C59.18078844 299.2247194 22.02135287 309.5674052 -16.4140625 305.50390625 C-43.85933266 302.00708971 -69.04859261 291.1626535 -90 273 C-91.22589844 271.95585938 -91.22589844 271.95585938 -92.4765625 270.890625 C-118.32257073 248.32537942 -134.72779232 217.02364765 -139 183 C-141.01207237 142.27565525 -132.90111793 104.60381119 -105.1875 73.4375 C-102.19452749 70.21913726 -99.14919712 67.06632351 -96 64 C-95.55011719 63.505 -95.10023437 63.01 -94.63671875 62.5 C-79.79660298 46.59198508 -57.73051349 35.67778395 -37 30 C-37.05800781 29.03320312 -37.11601563 28.06640625 -37.17578125 27.0703125 C-37.46431471 18.7440611 -37.31190694 11.84788004 -32 5 C-22.99254194 -3.85949161 -11.3336158 -5.54271721 0 0 Z " fill="#010102" transform="translate(139,50)"/>
<path d="M0 0 C2 2 2 2 2.3125 5.4375 C2 9 2 9 0.625 10.875 C-2.69398519 13.17275898 -4.96879038 13.38979873 -9 13 C-11.53515625 11.34765625 -11.53515625 11.34765625 -14.0625 9.0625 C-42.21457582 -15.14373231 -75.14970845 -24.5468757 -112 -22 C-143.34011304 -18.47820139 -172.66874162 -1.34611976 -193.0078125 22.453125 C-211.14975798 45.64635726 -220.0486761 71.77171195 -221.33105469 101.03271484 C-222.75449443 133.19069983 -233.53887694 159.56534502 -257 182 C-278.34197136 201.52429979 -305.99640028 210.21422782 -334.53515625 209.28515625 C-336.35718866 209.19848156 -338.17888972 209.10426856 -340 209 C-340.70237793 208.95987793 -341.40475586 208.91975586 -342.12841797 208.87841797 C-363.12777157 207.39062063 -387.62768124 196.7441449 -401.8671875 180.92578125 C-403.70801404 177.79637613 -402.86488062 175.39774529 -402 172 C-400.9375 170.0625 -400.9375 170.0625 -399 169 C-394.69938643 168.17005703 -392.42644655 168.04326722 -388.74609375 170.51171875 C-387.08979752 171.90060636 -385.4433998 173.30134607 -383.8046875 174.7109375 C-367.27118301 188.20485621 -344.1084423 194.56819795 -323 193 C-297.50766335 190.38777655 -275.13865419 179.4892181 -258.19140625 159.84375 C-242.75386884 139.81072462 -235.27375781 114.9795025 -238.50390625 89.7421875 C-240.40702387 76.79866858 -244.78416733 65.45980385 -251.40893555 54.19873047 C-253.65205607 50.25320802 -254.46092393 47.51705456 -254 43 C-253.72285156 42.17113281 -253.44570312 41.34226562 -253.16015625 40.48828125 C-252.70124073 37.70909576 -252.70124073 37.70909576 -255.30859375 35.10546875 C-256.33672216 34.11713886 -257.38045893 33.14484433 -258.4375 32.1875 C-258.96666016 31.68541016 -259.49582031 31.18332031 -260.04101562 30.66601562 C-261.34760964 29.43004832 -262.67216063 28.21311405 -264 27 C-264.89525391 27.49113281 -264.89525391 27.49113281 -265.80859375 27.9921875 C-268.3169206 29.14574958 -270.15021964 29.28889452 -272.8671875 28.80078125 C-279.83578797 26.18436532 -286.7248605 20.69267637 -290 14 C-293.00551572 5.88510757 -292.81285518 -0.76899343 -289.390625 -8.6015625 C-285.97901383 -14.48563345 -280.52656679 -18.54519847 -274.05859375 -20.5625 C-266.3015002 -22.21106637 -259.91995022 -20.76899192 -253 -17 C-245.0603741 -11.7419696 -237.90288669 -5.53841427 -231 1 C-230.14277344 1.804375 -229.28554687 2.60875 -228.40234375 3.4375 C-223.34881174 8.31572095 -219.16441041 13.24310874 -215.375 19.1640625 C-214.92125 19.76992187 -214.4675 20.37578125 -214 21 C-213.34 21 -212.68 21 -212 21 C-210.49455111 19.13422054 -209.08688793 17.25559042 -207.6875 15.3125 C-185.95889238 -13.76991209 -152.6690432 -32.19266817 -116.97900391 -37.71826172 C-74.01331144 -43.83501587 -31.18493706 -29.8963033 0 0 Z " fill="#010101" transform="translate(469,114)"/>
<path d="M0 0 C7.71710891 6.43567016 11.83245473 13.67845421 13.09375 23.68359375 C13.46758094 33.28425196 10.25483252 41.36646239 3.8046875 48.390625 C-2.8154064 55.10203054 -9.91900773 58.25942095 -19.3828125 58.640625 C-29.42483894 58.47381393 -36.8706863 54.6428073 -43.91796875 47.69140625 C-49.86206578 41.1923321 -52.66185059 33.69397406 -52.4609375 24.8203125 C-51.29959418 14.19743683 -47.29346141 6.34913374 -39.1953125 -0.609375 C-27.38285296 -8.88260525 -11.53280566 -8.45465469 0 0 Z M-30.734375 13.7578125 C-34.62639552 18.15056081 -36.25560789 21.49132032 -36.0703125 27.328125 C-35.20403912 32.67685947 -32.62009004 36.10485015 -28.6328125 39.703125 C-24.48967059 42.57145401 -21.14450292 42.72616333 -16.1953125 42.390625 C-10.81551373 40.5241642 -7.09523706 37.24260234 -4.1953125 32.390625 C-2.57121951 27.60427687 -2.73506428 23.67592639 -4.8203125 19.078125 C-7.73627609 14.10615997 -10.96078482 11.54479789 -16.5078125 9.953125 C-22.02235038 8.93463298 -26.50231899 9.99837188 -30.734375 13.7578125 Z " fill="#000000" transform="translate(304.1953125,406.609375)"/>
<path d="M0 0 C7.42086107 3.19359302 12.18259411 8.75641928 15.87890625 15.80859375 C19.4214032 25.14790388 19.33805436 37.13470765 15.9765625 46.53125 C12.22699766 54.31059628 6.93806837 59.61910203 -1.12109375 62.80859375 C-6.01535096 64.17898577 -11.07339778 64.10312323 -16.12109375 64.18359375 C-17.45527344 64.23966797 -17.45527344 64.23966797 -18.81640625 64.296875 C-19.68007812 64.30847656 -20.54375 64.32007813 -21.43359375 64.33203125 C-22.60341797 64.36176025 -22.60341797 64.36176025 -23.796875 64.39208984 C-27.63172719 63.42934859 -28.86075327 62.06976317 -31.12109375 58.80859375 C-31.85827827 54.68302405 -31.79759821 50.61108131 -31.75 46.4296875 C-31.75241196 45.22546646 -31.75482391 44.02124542 -31.75730896 42.78053284 C-31.75633047 40.23785098 -31.74293676 37.69514783 -31.71801758 35.15258789 C-31.68368624 31.25659015 -31.69736699 27.36285709 -31.71679688 23.46679688 C-31.70989927 20.99608408 -31.70022768 18.52537714 -31.6875 16.0546875 C-31.69245987 14.88796005 -31.69741974 13.7212326 -31.70252991 12.51914978 C-31.68669357 11.43444901 -31.67085724 10.34974823 -31.65454102 9.23217773 C-31.64834244 8.27907211 -31.64214386 7.32596649 -31.63575745 6.34397888 C-30.97310864 3.07957544 -29.65648609 1.89775526 -27.12109375 -0.19140625 C-20.66919817 -3.41735404 -6.88789094 -1.9544896 0 0 Z M-15.12109375 14.80859375 C-15.12109375 25.69859375 -15.12109375 36.58859375 -15.12109375 47.80859375 C-6.93828841 48.08884789 -6.93828841 48.08884789 -1.12109375 43.80859375 C2.37383708 38.10020673 2.72044509 32.39907205 1.87890625 25.80859375 C0.5600995 21.27100442 -1.06559143 18.55917318 -4.93359375 15.80859375 C-8.67748432 14.45936366 -8.67748432 14.45936366 -15.12109375 14.80859375 Z " fill="#000000" transform="translate(109.12109375,401.19140625)"/>
<path d="M0 0 C2.85751604 2.50274543 3.72474384 4.1464137 4 8 C2.93600927 11.81263347 2.3748349 12.75011007 -1 15 C-6.18469265 15.48006413 -8.69554273 14.75926748 -13 12 C-16.31316931 11.1209959 -18.16349401 10.66980027 -21.375 11.9375 C-21.91125 12.288125 -22.4475 12.63875 -23 13 C-18.93401219 15.71065854 -14.48257707 17.40448558 -9.98046875 19.2578125 C-3.42216483 22.04234377 1.2577018 25.0943384 4.265625 31.7265625 C5.85982363 36.66179442 6.07128561 41.44472038 4.046875 46.2734375 C0.43777433 52.41804561 -4.09712289 56.16418795 -10.8359375 58.4609375 C-18.08549954 60.26678508 -25.22212811 58.93744047 -32 56 C-36.13164485 53.47548912 -39.30401731 51.04397404 -42 47 C-42.42255137 43.12661246 -42.56667558 40.88401391 -40.4375 37.5625 C-36.98413031 35.34880148 -35.04354356 35.38318827 -31 36 C-29.30859375 37.09375 -29.30859375 37.09375 -27.625 38.4375 C-23.79657328 41.48638282 -19.875663 42.36850941 -15 42 C-14.01 41.34 -13.02 40.68 -12 40 C-12.96996812 37.53326245 -13.56096661 36.25370906 -15.8918457 34.90673828 C-16.64554443 34.63071777 -17.39924316 34.35469727 -18.17578125 34.0703125 C-19.00400391 33.74933594 -19.83222656 33.42835938 -20.68554688 33.09765625 C-22.42400185 32.45397552 -24.16357387 31.81330301 -25.90429688 31.17578125 C-32.56675831 28.58511073 -35.62510975 25.88618405 -39.375 19.75 C-40.65802429 14.10469311 -39.9267802 8.8192352 -37.3125 3.6875 C-26.86985249 -8.44854981 -13.03866637 -8.41675105 0 0 Z " fill="#000000" transform="translate(429,406)"/>
<path d="M0 0 C1.08925781 -0.020625 2.17851562 -0.04125 3.30078125 -0.0625 C4.35394531 -0.06765625 5.40710938 -0.0728125 6.4921875 -0.078125 C7.93247314 -0.09214355 7.93247314 -0.09214355 9.40185547 -0.10644531 C12.63131927 0.31627453 14.50406308 1.34754833 17.125 3.25 C18.67086876 6.34173752 18.41859521 8.84429552 18.125 12.25 C16.62109375 14.4609375 16.62109375 14.4609375 14.125 16.25 C11.23050051 16.5406124 8.74550065 16.63186045 5.875 16.5 C4.75738281 16.47292969 4.75738281 16.47292969 3.6171875 16.4453125 C1.78590299 16.39835649 -0.04471649 16.32661652 -1.875 16.25 C-1.875 19.22 -1.875 22.19 -1.875 25.25 C-0.82699219 25.21519531 0.22101563 25.18039062 1.30078125 25.14453125 C2.67967147 25.11639063 4.05857902 25.08909076 5.4375 25.0625 C6.12779297 25.03736328 6.81808594 25.01222656 7.52929688 24.98632812 C12.63678054 24.91230662 12.63678054 24.91230662 15.05078125 26.58203125 C16.70888797 29.15661877 17.00317824 31.20445595 17.125 34.25 C15.91870788 37.0435186 14.95638026 38.70328736 12.40234375 40.3828125 C9.45692185 41.50439682 7.01735018 41.44331196 3.875 41.375 C2.79734375 41.35695313 1.7196875 41.33890625 0.609375 41.3203125 C-0.62039062 41.28550781 -0.62039062 41.28550781 -1.875 41.25 C-1.875 43.89 -1.875 46.53 -1.875 49.25 C-0.21210938 49.18039062 -0.21210938 49.18039062 1.484375 49.109375 C2.94788968 49.07184898 4.41143356 49.03544971 5.875 49 C6.60460937 48.96648437 7.33421875 48.93296875 8.0859375 48.8984375 C11.63595942 48.83389165 13.69316373 48.93649367 16.60546875 51.05078125 C18.85640304 54.30856019 18.73548933 56.38356756 18.125 60.25 C16.46196596 62.84448394 15.7573122 63.83083745 13.125 65.25 C8.78156588 65.97690733 4.51834852 65.90161946 0.125 65.8125 C-1.050625 65.82345703 -2.22625 65.83441406 -3.4375 65.84570312 C-11.68611985 65.77540239 -11.68611985 65.77540239 -15.71289062 63.99584961 C-19.31132684 59.42588438 -18.54634682 54.39035451 -18.46875 48.75 C-18.46879028 47.52216797 -18.46883057 46.29433594 -18.46887207 45.02929688 C-18.46351098 42.43354168 -18.44590357 39.83778722 -18.41699219 37.2421875 C-18.37515905 33.26512132 -18.37592123 29.28974893 -18.3828125 25.3125 C-18.37231966 22.79165488 -18.35938106 20.2708185 -18.34375 17.75 C-18.34354858 16.55826172 -18.34334717 15.36652344 -18.34313965 14.13867188 C-18.32722778 13.03072266 -18.31131592 11.92277344 -18.29492188 10.78125 C-18.28650269 9.80736328 -18.2780835 8.83347656 -18.26940918 7.83007812 C-17.80670311 4.80322715 -16.99192291 3.4376996 -14.875 1.25 C-10.0312941 -0.36456863 -5.07239017 0.02384202 0 0 Z " fill="#000000" transform="translate(159.875,399.75)"/>
<path d="M0 0 C5.58115191 3.13060412 9.72975283 6.89072692 11.859375 13.04296875 C13.28504098 19.65894996 13.26758151 25.09095594 9.859375 31.04296875 C5.75328151 37.05718804 1.09892543 40.56033019 -6.140625 42.04296875 C-7.72274073 42.10845367 -9.30732581 42.12875256 -10.890625 42.10546875 C-11.68984375 42.09644531 -12.4890625 42.08742188 -13.3125 42.078125 C-13.91578125 42.06652344 -14.5190625 42.05492187 -15.140625 42.04296875 C-15.08261719 43.13996094 -15.02460938 44.23695313 -14.96484375 45.3671875 C-14.91792812 46.82157189 -14.87242989 48.27600249 -14.828125 49.73046875 C-14.78623047 50.45169922 -14.74433594 51.17292969 -14.70117188 51.91601562 C-14.60644944 56.06485847 -14.81829196 57.61374808 -17.40234375 61.0546875 C-20.140625 63.04296875 -20.140625 63.04296875 -22.2734375 63.48828125 C-22.93085938 63.38257813 -23.58828125 63.276875 -24.265625 63.16796875 C-24.92820312 63.08804688 -25.59078125 63.008125 -26.2734375 62.92578125 C-29.05582165 61.61026071 -29.76772391 59.7520357 -31.140625 57.04296875 C-31.52830505 54.46325684 -31.52830505 54.46325684 -31.54467773 51.68945312 C-31.55736191 50.64486938 -31.57004608 49.60028564 -31.58311462 48.52404785 C-31.58017899 47.40622925 -31.57724335 46.28841064 -31.57421875 45.13671875 C-31.5794606 43.97926147 -31.58470245 42.8218042 -31.59010315 41.62927246 C-31.59651933 39.18498537 -31.59519162 36.74066738 -31.58666992 34.29638672 C-31.57815559 30.55640759 -31.60693672 26.81795347 -31.63867188 23.078125 C-31.64028387 20.70182337 -31.63970639 18.32551904 -31.63671875 15.94921875 C-31.64795273 14.83140015 -31.65918671 13.71358154 -31.67076111 12.56188965 C-31.60139802 4.83820038 -31.60139802 4.83820038 -29.29711914 0.86132812 C-22.83144393 -4.59053975 -7.54212893 -3.11332067 0 0 Z M-15.140625 14.04296875 C-15.140625 18.00296875 -15.140625 21.96296875 -15.140625 26.04296875 C-11.85063218 26.46128279 -11.85063218 26.46128279 -8.140625 26.04296875 C-5.20089219 23.68878499 -5.20089219 23.68878499 -3.140625 21.04296875 C-4.39039256 17.38980204 -4.81161253 16.26231039 -8.140625 14.04296875 C-10.47261888 13.96391811 -12.80895122 13.95498106 -15.140625 14.04296875 Z " fill="#000000" transform="translate(362.140625,401.95703125)"/>
<path d="M0 0 C3.28379234 2.45512784 4.16177024 5.63313276 5.48046875 9.41796875 C5.80704216 10.34383537 5.80704216 10.34383537 6.14021301 11.28840637 C6.83075311 13.25203994 7.50925079 15.21959154 8.1875 17.1875 C8.65480945 18.52306297 9.12289981 19.85835297 9.59179688 21.19335938 C10.73692842 24.45912598 11.87130046 27.72851265 13 31 C13.25168945 30.20303711 13.50337891 29.40607422 13.76269531 28.58496094 C14.70717033 25.61475581 15.66260645 22.64836632 16.62548828 19.68408203 C17.24187075 17.7751759 17.84563368 15.86220987 18.44921875 13.94921875 C18.84238281 12.74394531 19.23554688 11.53867187 19.640625 10.296875 C20.17478027 8.63156738 20.17478027 8.63156738 20.71972656 6.93261719 C22.07315512 3.83242958 23.41084678 2.14675963 26 0 C28.74659576 -0.7295645 31.22200688 -0.55218306 34 0 C36.5 1.5625 36.5 1.5625 38 4 C38.6535779 10.47287343 36.73495277 15.90732965 34.7109375 22.0078125 C34.37003082 23.05145966 34.02912415 24.09510681 33.67788696 25.17037964 C32.95528978 27.36913877 32.22709229 29.56606436 31.49365234 31.76123047 C30.37866537 35.11397828 29.29610284 38.4760905 28.21484375 41.83984375 C27.50716703 43.97981539 26.79759453 46.11916124 26.0859375 48.2578125 C25.76692474 49.2599881 25.44791199 50.2621637 25.11923218 51.29470825 C23.09521569 57.23000933 21.35463658 60.60092336 16 64 C12.26420735 64.686166 10.71165546 64.44881553 7.5 62.42333984 C4.47515292 59.49124686 3.33489408 56.57430857 2.0625 52.6640625 C1.81508057 51.94826019 1.56766113 51.23245789 1.31274414 50.4949646 C0.5265937 48.20985052 -0.23712491 45.91797626 -1 43.625 C-1.51151816 42.12318527 -2.02452681 40.62187733 -2.5390625 39.12109375 C-3.54980049 36.16963482 -4.55018303 33.21494135 -5.54492188 30.25805664 C-7.28464093 25.1177059 -9.16677854 20.0320973 -11.06835938 14.94946289 C-12.42297227 10.66092034 -12.58452122 7.45697431 -12 3 C-8.54827872 -1.30461752 -5.12601728 -1.28150432 0 0 Z " fill="#000000" transform="translate(205,401)"/>
<path d="M0 0 C17.02391513 4.70874248 34.1717944 26.33961604 43.3046875 40.15234375 C45.18820175 44.517745 43.41741401 47.67509216 41.7578125 51.8671875 C41.11790786 53.40427803 40.47325114 54.93939756 39.82421875 56.47265625 C39.49486328 57.26091797 39.16550781 58.04917969 38.82617188 58.86132812 C38.01712969 60.79599421 37.20248023 62.72831378 36.38671875 64.66015625 C33.29410654 61.56754404 31.88150832 57.62692484 30.01953125 53.703125 C28.36864053 50.62646501 26.86151714 48.13036318 24.38671875 45.66015625 C22.02307575 45.3548148 22.02307575 45.3548148 19.57421875 45.84765625 C16.33654014 46.02858535 14.94437874 46.09556001 12.35546875 44.07421875 C11.16395735 42.66844433 10.01981085 41.22118394 8.92578125 39.73828125 C7.33976922 37.42413456 7.33976922 37.42413456 4.44921875 35.22265625 C1.74528469 31.86322302 2.28250071 29.95270649 2.5234375 25.80859375 C2.56574033 23.34481505 2.56574033 23.34481505 0.19921875 20.78515625 C-2.32991078 18.87425839 -4.8934736 17.27733918 -7.61328125 15.66015625 C-10.10487165 11.92277065 -10.0712141 10.08684042 -9.61328125 5.66015625 C-7.38756723 1.3014663 -5.02752075 -0.36242756 0 0 Z " fill="#D7AFEB" transform="translate(202.61328125,108.33984375)"/>
<path d="M0 0 C1.79571515 2.69357272 3.30050366 5.43813876 4.81689453 8.29321289 C9.60287047 17.18428409 15.16994295 24.59201505 22 32 C22.56976563 32.65097656 23.13953125 33.30195313 23.7265625 33.97265625 C28.1566637 38.77761216 33.52456953 42.43518961 38.84667969 46.18212891 C39.4812207 46.63249512 40.11576172 47.08286133 40.76953125 47.546875 C41.34292236 47.94745117 41.91631348 48.34802734 42.50708008 48.76074219 C45.31642145 51.09274821 45.98388881 52.8523141 46.375 56.4375 C46 60 46 60 44.4375 62.375 C40.94478975 64.7034735 39.2574318 65.20273485 35 65 C27.81374614 61.63833217 21.94639126 56.42892955 16.203125 51.046875 C13.92285819 48.86750676 13.92285819 48.86750676 10.9375 46.625 C6.38027246 42.5525839 2.73959082 37.81819474 -1 33 C-1.71542969 32.10023438 -2.43085938 31.20046875 -3.16796875 30.2734375 C-3.81378906 29.42007812 -4.45960938 28.56671875 -5.125 27.6875 C-5.70507812 26.92824219 -6.28515625 26.16898437 -6.8828125 25.38671875 C-8.91531393 21.0445566 -7.13246047 17.23671677 -5.625 12.94921875 C-5.08901452 11.52649258 -4.54723983 10.10593532 -4 8.6875 C-3.72671875 7.95982422 -3.4534375 7.23214844 -3.171875 6.48242188 C-1.14074248 1.14074248 -1.14074248 1.14074248 0 0 Z " fill="#D5ADE9" transform="translate(273,258)"/>
<path d="M0 0 C4.34675033 3.13497641 7.20494113 6.61151067 10.25 10.9375 C10.69601563 11.54529297 11.14203125 12.15308594 11.6015625 12.77929688 C12.02695313 13.37677734 12.45234375 13.97425781 12.890625 14.58984375 C13.27250977 15.12472412 13.65439453 15.65960449 14.04785156 16.21069336 C15.70596089 19.32666342 16.30282657 21.87240867 15.37915039 25.31176758 C15.03875732 26.08157959 14.69836426 26.8513916 14.34765625 27.64453125 C13.98349609 28.48564453 13.61933594 29.32675781 13.24414062 30.19335938 C12.85419922 31.05767578 12.46425781 31.92199219 12.0625 32.8125 C11.67642578 33.69615234 11.29035156 34.57980469 10.89257812 35.49023438 C9.94009781 37.66565238 8.9756986 39.83492068 8 42 C4.90738779 38.90738779 3.49478957 34.96676859 1.6328125 31.04296875 C0.00226558 28.00422222 -1.6552946 25.52717275 -4 23 C-7.13863704 22.11406002 -7.13863704 22.11406002 -10 22 C-9.4583664 17.09561905 -7.96096872 13.60580887 -5.5625 9.3125 C-4.94503906 8.19488281 -4.32757813 7.07726562 -3.69140625 5.92578125 C-2.52668372 3.91105336 -1.29088009 1.93632013 0 0 Z " fill="#C794E2" transform="translate(231,131)"/>
<path d="M0 0 C1.44108114 2.1616217 2.71797969 4.2411241 3.953125 6.51171875 C7.90874641 13.7103458 11.80187024 20.60230184 17 27 C14.36 31.62 11.72 36.24 9 41 C6 41 6 41 4.16796875 39.34765625 C-8.12593427 25.16238354 -8.12593427 25.16238354 -7.83984375 20.25 C-6.81383142 16.27957089 -5.47487383 12.51034515 -4 8.6875 C-3.72671875 7.95982422 -3.4534375 7.23214844 -3.171875 6.48242188 C-1.14074248 1.14074248 -1.14074248 1.14074248 0 0 Z " fill="#C693E2" transform="translate(273,258)"/>
</svg>
